<?xml version="1.0" encoding="UTF-8" standalone="no"?>
<!-- Created with Inkscape (http://www.inkscape.org/) -->

<svg
   xmlns:dc="http://purl.org/dc/elements/1.1/"
   xmlns:cc="http://creativecommons.org/ns#"
   xmlns:rdf="http://www.w3.org/1999/02/22-rdf-syntax-ns#"
   xmlns:svg="http://www.w3.org/2000/svg"
   xmlns="http://www.w3.org/2000/svg"
   xmlns:sodipodi="http://sodipodi.sourceforge.net/DTD/sodipodi-0.dtd"
   xmlns:inkscape="http://www.inkscape.org/namespaces/inkscape"
   width="256"
   height="256"
   id="svg3005"
   version="1.1"
   inkscape:version="0.48.4 r9939"
   sodipodi:docname="OrderStormLightningLogo256x256.svg"
   inkscape:export-filename="/home/carlos/Pictures/OrderStormLogo256x256.png"
   inkscape:export-xdpi="90"
   inkscape:export-ydpi="90">
  <defs
     id="defs3007">
    <clipPath
       clipPathUnits="userSpaceOnUse"
       id="clipPath22">
      <path
         inkscape:connector-curvature="0"
         d="m 204.328,490.793 c 6.317,-3.906 13.442,-7.574 21.426,-11.012 7.98,-3.437 16.133,-7.043 24.434,-10.883 8.3,-3.82 16.433,-8.175 24.414,-13.039 7.98,-4.867 15.089,-10.691 21.32,-17.457 6.211,-6.785 11.246,-14.769 15.066,-23.925 3.84,-9.196 5.762,-19.997 5.762,-32.438 0,-16.262 -3.031,-30.539 -9.09,-42.828 -6.039,-12.273 -14.258,-22.516 -24.605,-30.734 -10.352,-8.215 -22.453,-14.403 -36.301,-18.543 -13.852,-4.141 -28.684,-6.231 -44.434,-6.231 -10.672,0 -20.593,0.895 -29.75,2.688 -9.156,1.769 -17.242,3.925 -24.242,6.445 -7.019,2.516 -12.867,5.141 -17.562,7.894 -4.719,2.754 -8.09,5.208 -10.161,7.321 -2.07,2.113 -3.542,5.101 -4.417,8.984 -0.875,3.883 -1.321,9.477 -1.321,16.754 0,4.93 0.168,9.047 0.488,12.379 0.301,3.328 0.833,6.016 1.54,8.086 0.722,2.051 1.664,3.523 2.859,4.398 1.195,0.875 2.582,1.301 4.18,1.301 2.199,0 5.336,-1.324 9.39,-3.992 4.055,-2.645 9.262,-5.59 15.621,-8.813 6.34,-3.222 13.938,-6.168 22.731,-8.835 8.812,-2.645 19.012,-3.969 30.625,-3.969 7.617,0 14.445,0.918 20.465,2.754 6.039,1.836 11.16,4.437 15.363,7.789 4.207,3.371 7.43,7.511 9.648,12.484 2.239,4.949 3.352,10.477 3.352,16.539 0,7.02 -1.922,13.039 -5.742,18.074 -3.821,5.016 -8.793,9.496 -14.918,13.403 -6.125,3.906 -13.082,7.554 -20.871,10.992 -7.789,3.434 -15.836,7.062 -24.094,10.902 -8.281,3.821 -16.305,8.176 -24.117,13.02 -7.789,4.867 -14.746,10.691 -20.871,17.476 -6.125,6.766 -11.094,14.789 -14.914,24.055 -3.821,9.238 -5.723,20.316 -5.723,33.246 0,14.832 2.734,27.871 8.238,39.121 5.485,11.246 12.891,20.571 22.215,27.996 9.328,7.43 20.316,12.957 32.996,16.625 12.652,3.672 26.078,5.508 40.246,5.508 7.344,0 14.664,-0.555 21.985,-1.687 7.339,-1.129 14.191,-2.645 20.57,-4.586 6.359,-1.946 12.016,-4.121 16.965,-6.532 4.929,-2.414 8.195,-4.418 9.797,-6.019 1.578,-1.621 2.648,-2.988 3.222,-4.098 0.555,-1.109 1.047,-2.582 1.43,-4.394 0.406,-1.817 0.684,-4.121 0.832,-6.895 0.172,-2.773 0.258,-6.211 0.258,-10.328 0,-4.609 -0.129,-8.492 -0.363,-11.676 -0.235,-3.156 -0.641,-5.781 -1.196,-7.851 -0.578,-2.047 -1.367,-3.563 -2.39,-4.504 -1.047,-0.961 -2.434,-1.43 -4.184,-1.43 -1.75,0 -4.543,1.133 -8.387,3.395 -3.82,2.242 -8.515,4.695 -14.105,7.363 -5.57,2.644 -12.035,5.059 -19.356,7.234 -7.343,2.176 -15.386,3.266 -24.16,3.266 -6.847,0 -12.824,-0.856 -17.926,-2.543 -5.101,-1.684 -9.367,-4.031 -12.781,-6.996 -3.437,-2.988 -5.976,-6.574 -7.64,-10.734 -1.688,-4.208 -2.52,-8.625 -2.52,-13.297 0,-6.871 1.879,-12.805 5.613,-17.821 3.758,-5.035 8.77,-9.496 15.09,-13.402 m 359.465,-197.34 c -0.961,-1.195 -2.563,-2.176 -4.781,-2.988 -2.239,-0.809 -5.293,-1.387 -9.199,-1.793 -3.903,-0.383 -8.747,-0.594 -14.469,-0.594 -5.91,0 -10.797,0.211 -14.703,0.594 -3.907,0.406 -6.977,0.984 -9.196,1.793 -2.242,0.812 -3.82,1.793 -4.781,2.988 -0.961,1.195 -1.43,2.582 -1.43,4.164 l 0,121.492 c 0,10.329 -0.769,18.438 -2.285,24.329 -1.535,5.871 -3.734,10.925 -6.613,15.152 -2.883,4.203 -6.598,7.469 -11.141,9.773 -4.566,2.305 -9.882,3.481 -15.965,3.481 -7.683,0 -15.449,-2.797 -23.281,-8.367 -7.832,-5.571 -16.008,-13.68 -24.48,-24.329 l 0,-141.531 c 0,-1.582 -0.469,-2.969 -1.43,-4.164 -0.957,-1.195 -2.582,-2.176 -4.887,-2.988 -2.304,-0.809 -5.355,-1.387 -9.152,-1.793 -3.82,-0.383 -8.645,-0.594 -14.535,-0.594 -5.867,0 -10.692,0.211 -14.512,0.594 -3.801,0.406 -6.871,0.984 -9.176,1.793 -2.304,0.812 -3.929,1.793 -4.867,2.988 -0.961,1.195 -1.43,2.582 -1.43,4.184 l 0,314.523 c 0,1.602 0.469,3.031 1.43,4.309 0.938,1.281 2.563,2.347 4.867,3.246 2.305,0.875 5.375,1.535 9.176,2.027 3.82,0.469 8.645,0.727 14.512,0.727 5.89,0 10.715,-0.258 14.535,-0.727 3.797,-0.492 6.848,-1.152 9.152,-2.027 2.305,-0.899 3.93,-1.965 4.887,-3.246 0.961,-1.278 1.43,-2.731 1.43,-4.309 l 0,-118.164 c 10.394,10.199 20.98,17.797 31.758,22.813 10.777,5.015 22,7.531 33.652,7.531 14.535,0 26.785,-2.387 36.773,-7.168 9.985,-4.781 18.051,-11.313 24.2,-19.594 6.144,-8.277 10.586,-17.969 13.296,-29.023 2.731,-11.075 4.075,-24.477 4.075,-40.246 l 0,-130.672 c 0,-1.602 -0.469,-2.989 -1.43,-4.184 M 833.5,356.43 c -4.805,-15 -12.059,-27.914 -21.789,-38.754 -9.731,-10.863 -21.938,-19.227 -36.602,-25.117 -14.683,-5.891 -31.839,-8.856 -51.453,-8.856 -18.992,0 -35.488,2.645 -49.531,7.895 -14.043,5.269 -25.672,12.91 -34.934,22.961 -9.261,10.054 -16.113,22.41 -20.574,37.07 -4.48,14.684 -6.699,31.414 -6.699,50.238 0,18.18 2.434,34.805 7.297,49.871 4.867,15.067 12.164,27.981 21.894,38.758 9.735,10.754 21.899,19.098 36.493,24.988 14.597,5.891 31.691,8.856 51.328,8.856 19.14,0 35.722,-2.602 49.765,-7.789 14.043,-5.184 25.629,-12.805 34.809,-22.832 9.176,-10.055 16.004,-22.41 20.465,-37.071 4.461,-14.683 6.699,-31.5 6.699,-50.472 0,-18.18 -2.387,-34.762 -7.168,-49.746 m -57.215,76.488 c -1.687,8.855 -4.527,16.559 -8.515,23.09 -4.012,6.551 -9.329,11.652 -15.942,15.324 -6.637,3.668 -14.98,5.504 -25.055,5.504 -8.964,0 -16.796,-1.645 -23.496,-4.906 -6.722,-3.289 -12.226,-8.071 -16.539,-14.364 -4.312,-6.296 -7.554,-13.871 -9.711,-22.73 -2.156,-8.856 -3.222,-18.949 -3.222,-30.258 0,-10.543 0.875,-20.234 2.625,-29.09 1.75,-8.836 4.59,-16.539 8.515,-23.07 3.907,-6.551 9.219,-11.609 15.942,-15.195 6.699,-3.606 15.023,-5.399 24.926,-5.399 9.113,0 17.007,1.645 23.73,4.91 6.703,3.266 12.23,8.024 16.539,14.235 4.332,6.23 7.512,13.765 9.606,22.621 2.07,8.836 3.113,18.93 3.113,30.262 0,10.519 -0.852,20.207 -2.516,29.066 m 320.435,-77.086 c -4.08,-15.234 -10.03,-28.191 -17.86,-38.883 -7.86,-10.691 -17.61,-18.886 -29.29,-24.648 -11.69,-5.719 -25.03,-8.598 -40.07,-8.598 -6.23,0 -11.953,0.617 -17.16,1.789 -5.188,1.196 -10.223,3.031 -15.11,5.508 -4.886,2.477 -9.71,5.547 -14.511,9.219 -4.801,3.672 -9.754,7.98 -14.875,12.91 l 0,-100.387 c 0,-1.601 -0.469,-3.031 -1.43,-4.308 -0.961,-1.262 -2.582,-2.348 -4.887,-3.223 -2.304,-0.875 -5.355,-1.559 -9.156,-2.051 -3.82,-0.449 -8.664,-0.703 -14.531,-0.703 -5.871,0 -10.715,0.254 -14.512,0.703 -3.82,0.492 -6.875,1.176 -9.18,2.051 -2.304,0.875 -3.925,1.961 -4.886,3.242 -0.957,1.281 -1.43,2.711 -1.43,4.289 l 0,298.262 c 0,1.601 0.406,2.988 1.195,4.184 0.789,1.195 2.176,2.195 4.161,2.988 1.988,0.808 4.613,1.406 7.875,1.812 3.246,0.383 7.343,0.598 12.253,0.598 4.758,0 8.77,-0.215 12.036,-0.598 3.242,-0.425 5.867,-1.023 7.851,-1.836 1.965,-0.789 3.352,-1.793 4.164,-3.007 0.789,-1.219 1.196,-2.625 1.196,-4.227 l 0,-25.332 c 6.23,6.383 12.355,11.992 18.351,16.859 5.996,4.868 12.098,8.922 18.332,12.207 6.231,3.266 12.656,5.676 19.313,7.301 6.641,1.578 13.701,2.387 21.211,2.387 15.67,0 29.03,-3.094 40.06,-9.219 11.03,-6.144 20.04,-14.555 26.97,-25.223 6.96,-10.691 12.04,-23.136 15.24,-37.328 3.2,-14.191 4.8,-29.343 4.8,-45.453 0,-18.972 -2.05,-36.066 -6.12,-51.285 m -58.43,73.328 c -1.37,8.367 -3.7,15.836 -6.98,22.387 -3.31,6.531 -7.64,11.758 -13,15.664 -5.4,3.906 -12.1,5.871 -20.122,5.871 -4.012,0 -7.981,-0.598 -11.93,-1.816 -3.926,-1.196 -7.942,-3.157 -12.035,-5.868 -4.098,-2.73 -8.305,-6.253 -12.657,-10.585 -4.332,-4.333 -8.898,-9.711 -13.722,-16.114 l 0,-70.316 c 8.515,-10.672 16.605,-18.91 24.328,-24.715 7.703,-5.805 15.73,-8.707 24.094,-8.707 7.874,0 14.554,1.984 20.104,5.977 5.55,3.992 10.07,9.218 13.61,15.687 3.53,6.465 6.15,13.762 7.84,21.895 1.68,8.152 2.52,16.281 2.52,24.433 0,9.094 -0.69,17.82 -2.05,26.207 m 321.37,-73.328 c -4.08,-15.234 -10.03,-28.191 -17.86,-38.883 -7.85,-10.691 -17.61,-18.886 -29.28,-24.648 -11.68,-5.719 -25.04,-8.598 -40.08,-8.598 -6.23,0 -11.95,0.617 -17.16,1.789 -5.19,1.196 -10.22,3.031 -15.11,5.508 -4.88,2.477 -9.71,5.547 -14.51,9.219 -4.8,3.672 -9.75,7.98 -14.87,12.91 l 0,-100.387 c 0,-1.601 -0.47,-3.031 -1.43,-4.308 -0.97,-1.262 -2.59,-2.348 -4.89,-3.223 -2.31,-0.875 -5.36,-1.559 -9.16,-2.051 -3.82,-0.449 -8.66,-0.703 -14.53,-0.703 -5.87,0 -10.71,0.254 -14.51,0.703 -3.82,0.492 -6.88,1.176 -9.18,2.051 -2.3,0.875 -3.93,1.961 -4.89,3.242 -0.93,1.281 -1.4,2.711 -1.4,4.289 l 0,298.262 c 0,1.601 0.38,2.988 1.17,4.184 0.79,1.195 2.18,2.195 4.16,2.988 1.99,0.808 4.61,1.406 7.88,1.812 3.24,0.383 7.34,0.598 12.24,0.598 4.77,0 8.78,-0.215 12.04,-0.598 3.25,-0.425 5.87,-1.023 7.85,-1.836 1.99,-0.789 3.38,-1.793 4.17,-3.007 0.79,-1.219 1.19,-2.625 1.19,-4.227 l 0,-25.332 c 6.23,6.383 12.36,11.992 18.36,16.859 5.99,4.868 12.1,8.922 18.33,12.207 6.23,3.266 12.67,5.676 19.31,7.301 6.64,1.578 13.7,2.387 21.23,2.387 15.67,0 29.01,-3.094 40.04,-9.219 11.03,-6.144 20.04,-14.555 27,-25.223 6.93,-10.691 12.01,-23.136 15.21,-37.328 3.2,-14.191 4.81,-29.343 4.81,-45.453 0,-18.972 -2.06,-36.066 -6.13,-51.285 m -58.43,73.328 c -1.37,8.367 -3.69,15.836 -6.98,22.387 -3.29,6.531 -7.64,11.758 -13,15.664 -5.37,3.906 -12.1,5.871 -20.12,5.871 -4.01,0 -7.98,-0.598 -11.93,-1.816 -3.93,-1.196 -7.94,-3.157 -12.04,-5.868 -4.09,-2.73 -8.3,-6.253 -12.65,-10.585 -4.33,-4.333 -8.9,-9.711 -13.72,-16.114 l 0,-70.316 c 8.51,-10.672 16.6,-18.91 24.32,-24.715 7.71,-5.805 15.73,-8.707 24.1,-8.707 7.87,0 14.57,1.984 20.12,5.977 5.53,3.992 10.05,9.218 13.6,15.687 3.54,6.465 6.14,13.762 7.83,21.895 1.69,8.152 2.52,16.281 2.52,24.433 0,9.094 -0.69,17.82 -2.05,26.207 m 170.09,128.985 c -4.96,-4.629 -14.11,-6.934 -27.52,-6.934 -13.55,0 -22.68,2.219 -27.39,6.68 -4.7,4.48 -7.05,12.527 -7.05,24.179 0,12.098 2.43,20.485 7.3,25.203 4.84,4.715 14.07,7.063 27.62,7.063 13.4,0 22.49,-2.285 27.27,-6.828 4.78,-4.547 7.19,-12.633 7.19,-24.266 0,-12.121 -2.49,-20.488 -7.42,-25.097 m -51.29,-40.313 c 2.31,0.875 5.38,1.559 9.18,2.027 3.8,0.469 8.64,0.727 14.51,0.727 5.87,0 10.71,-0.258 14.53,-0.727 3.8,-0.468 6.86,-1.152 9.16,-2.027 2.3,-0.875 3.93,-1.922 4.89,-3.117 0.96,-1.192 1.43,-2.582 1.43,-4.18 l 0,-212.875 c 0,-1.601 -0.47,-3.012 -1.43,-4.207 -0.96,-1.195 -2.59,-2.176 -4.89,-2.988 -2.3,-0.809 -5.36,-1.387 -9.16,-1.793 -3.82,-0.383 -8.66,-0.594 -14.53,-0.594 -5.87,0 -10.71,0.211 -14.51,0.594 -3.8,0.406 -6.87,0.984 -9.18,1.793 -2.3,0.812 -3.92,1.793 -4.86,2.988 -0.96,1.195 -1.43,2.606 -1.43,4.207 l 0,212.875 c 0,1.598 0.47,2.988 1.43,4.18 0.94,1.195 2.56,2.242 4.86,3.117 m 316.36,-224.379 c -0.96,-1.195 -2.56,-2.176 -4.78,-2.988 -2.22,-0.809 -5.29,-1.387 -9.2,-1.793 -3.9,-0.383 -8.73,-0.594 -14.47,-0.594 -5.89,0 -10.8,0.211 -14.7,0.594 -3.91,0.406 -6.98,0.984 -9.2,1.793 -2.22,0.812 -3.82,1.793 -4.78,2.988 -0.96,1.195 -1.43,2.582 -1.43,4.164 l 0,121.492 c 0,10.329 -0.77,18.438 -2.28,24.329 -1.54,5.871 -3.74,10.925 -6.62,15.152 -2.88,4.203 -6.59,7.469 -11.14,9.773 -4.56,2.305 -9.88,3.481 -15.96,3.481 -7.69,0 -15.43,-2.797 -23.28,-8.367 -7.84,-5.571 -15.99,-13.68 -24.48,-24.329 l 0,-141.531 c 0,-1.582 -0.47,-2.969 -1.43,-4.164 -0.96,-1.195 -2.59,-2.176 -4.89,-2.988 -2.3,-0.809 -5.34,-1.387 -9.15,-1.793 -3.8,-0.383 -8.65,-0.594 -14.52,-0.594 -5.88,0 -10.71,0.211 -14.53,0.594 -3.8,0.406 -6.85,0.984 -9.16,1.793 -2.3,0.812 -3.92,1.793 -4.88,2.988 -0.96,1.195 -1.43,2.606 -1.43,4.207 l 0,213.344 c 0,1.601 0.38,2.988 1.19,4.203 0.79,1.195 2.22,2.176 4.29,2.988 2.05,0.789 4.72,1.387 7.96,1.793 3.25,0.383 7.34,0.598 12.27,0.598 5.09,0 9.29,-0.215 12.62,-0.598 3.32,-0.406 5.91,-1.004 7.72,-1.793 1.84,-0.812 3.14,-1.793 3.95,-2.988 0.79,-1.215 1.19,-2.602 1.19,-4.203 l 0,-24.629 c 11.81,12.656 23.82,22.133 36.05,28.469 12.21,6.316 24.93,9.496 38.2,9.496 14.51,0 26.78,-2.387 36.75,-7.168 9.99,-4.781 18.03,-11.27 24.2,-19.484 6.15,-8.196 10.57,-17.778 13.3,-28.77 2.71,-11.012 4.05,-24.223 4.05,-39.672 l 0,-131.609 c 0,-1.602 -0.47,-2.989 -1.43,-4.184 m 250.29,185.774 c -1.75,-3.692 -3.91,-5.528 -6.45,-5.528 l -25.12,0 c 3.5,-3.84 6.02,-8.215 7.54,-13.101 1.51,-4.887 2.26,-9.969 2.26,-15.262 0,-12.461 -2.07,-23.516 -6.21,-33.184 -4.16,-9.668 -10.09,-17.82 -17.82,-24.457 -7.75,-6.617 -17.08,-11.652 -28,-15.086 -10.93,-3.437 -23.09,-5.144 -36.49,-5.144 -6.85,0 -13.41,0.832 -19.62,2.496 -6.23,1.687 -11.01,3.648 -14.36,5.891 -1.92,-2.09 -3.62,-4.567 -5.14,-7.45 -1.52,-2.879 -2.26,-6.082 -2.26,-9.601 0,-4.653 2.03,-8.453 6.08,-11.418 4.07,-2.965 9.77,-4.61 17.11,-4.93 l 51.93,-1.898 c 12.12,-0.492 22.92,-2.2 32.41,-5.164 9.5,-2.946 17.46,-7.086 23.92,-12.422 6.47,-5.336 11.4,-11.758 14.84,-19.25 3.43,-7.492 5.14,-16.028 5.14,-25.586 0,-10.524 -2.3,-20.445 -6.93,-29.793 -4.63,-9.305 -11.57,-17.414 -20.81,-24.266 -9.26,-6.851 -20.87,-12.269 -34.83,-16.261 -13.96,-3.989 -30.26,-5.977 -48.91,-5.977 -18.19,0 -33.7,1.453 -46.55,4.312 -12.82,2.883 -23.37,6.872 -31.58,11.973 -8.22,5.102 -14.19,11.203 -17.95,18.309 -3.74,7.129 -5.61,14.898 -5.61,23.371 0,5.269 0.68,10.285 2.02,15.086 1.37,4.781 3.35,9.371 5.98,13.765 2.65,4.395 5.87,8.578 9.71,12.571 3.82,3.992 8.22,7.832 13.15,11.504 -6.85,3.648 -12.15,8.64 -15.9,14.937 -3.76,6.316 -5.64,13.211 -5.64,20.699 0,9.414 2.16,17.992 6.47,25.715 4.31,7.727 9.88,14.727 16.75,20.938 -5.59,5.589 -10.05,12.293 -13.4,20.125 -3.35,7.832 -5.03,17.586 -5.03,29.238 0,12.461 2.19,23.601 6.59,33.437 4.37,9.821 10.48,18.122 18.29,24.93 7.83,6.785 17.15,11.969 28,15.578 10.84,3.586 22.81,5.375 35.89,5.375 6.7,0 13.13,-0.383 19.25,-1.152 6.15,-0.766 11.85,-1.832 17.12,-3.219 l 67.71,0 c 2.71,0 4.89,-1.75 6.57,-5.273 1.67,-3.52 2.52,-9.453 2.52,-17.778 0,-7.683 -0.87,-13.379 -2.64,-17.05 M 1831.4,267.332 c 0,-7.918 4.03,-13.957 12.08,-18.074 8.07,-4.121 19.44,-6.168 34.1,-6.168 9.09,0 16.76,0.918 22.96,2.73 6.24,1.817 11.25,4.246 15.09,7.235 3.82,3.031 6.53,6.402 8.14,10.117 1.57,3.734 2.38,7.641 2.38,11.758 0,7.129 -2.88,12.613 -8.62,16.41 -5.74,3.801 -13.64,5.871 -23.67,6.168 l -42.82,1.195 c -4.17,-3.008 -7.47,-5.89 -9.95,-8.664 -2.48,-2.773 -4.46,-5.422 -5.98,-7.98 -1.51,-2.52 -2.52,-4.973 -2.98,-7.364 -0.49,-2.367 -0.73,-4.824 -0.73,-7.363 m 71.06,204.938 c -6.37,6.382 -15.38,9.562 -27.03,9.562 -5.89,0 -11.08,-1.004 -15.54,-2.988 -4.48,-2.008 -8.19,-4.719 -11.14,-8.153 -2.95,-3.414 -5.14,-7.406 -6.57,-11.953 -1.45,-4.543 -2.16,-9.281 -2.16,-14.234 0,-10.84 3.18,-19.418 9.56,-25.715 6.38,-6.316 15.24,-9.453 26.57,-9.453 6.06,0 11.31,0.961 15.8,2.859 4.45,1.922 8.17,4.547 11.11,7.895 2.95,3.351 5.19,7.215 6.71,11.609 1.51,4.399 2.28,8.985 2.28,13.766 0,11.48 -3.2,20.402 -9.59,26.805 m 316.13,-109.243 c 6.91,-8.601 15.28,-15.027 25.07,-19.25 9.78,-4.207 20.79,-6.316 33.04,-6.316 11.14,0 20.76,1.301 28.89,3.926 8.11,2.625 15.07,5.504 20.87,8.683 5.81,3.18 10.59,6.039 14.33,8.582 3.73,2.539 6.63,3.797 8.7,3.797 1.6,0 2.89,-0.32 3.82,-0.937 0.96,-0.664 1.75,-1.946 2.39,-3.844 0.64,-1.918 1.11,-4.586 1.43,-8.023 0.32,-3.438 0.5,-8.024 0.5,-13.766 0,-3.988 -0.13,-7.383 -0.37,-10.18 -0.23,-2.793 -0.6,-5.183 -1.09,-7.191 -0.47,-2.004 -1.11,-3.711 -1.9,-5.145 -0.81,-1.449 -2.07,-3.07 -3.84,-4.863 -1.75,-1.816 -5.12,-4.121 -10.16,-6.957 -5.01,-2.84 -11.16,-5.551 -18.39,-8.133 -7.26,-2.601 -15.54,-4.758 -24.86,-6.484 -9.33,-1.731 -19.4,-2.586 -30.22,-2.586 -21.19,0 -40.32,3.265 -57.37,9.797 -17.05,6.531 -31.56,16.285 -43.51,29.281 -11.95,12.996 -21.13,29.191 -27.49,48.633 -6.38,19.445 -9.56,42.086 -9.56,67.91 0,26.289 3.5,49.637 10.5,70.039 7,20.402 16.77,37.52 29.36,51.391 12.57,13.871 27.64,24.39 45.23,31.562 17.6,7.172 36.96,10.754 58.13,10.754 8.6,0 16.88,-0.723 24.84,-2.152 7.94,-1.453 15.3,-3.332 22.07,-5.657 6.76,-2.328 12.87,-4.996 18.27,-8.023 5.41,-3.055 9.19,-5.656 11.35,-7.812 2.13,-2.157 3.61,-3.95 4.42,-5.379 0.78,-1.45 1.41,-3.286 1.9,-5.504 0.47,-2.242 0.83,-4.867 1.06,-7.899 0.24,-3.027 0.37,-6.785 0.37,-11.246 0,-4.801 -0.17,-8.855 -0.48,-12.207 -0.32,-3.351 -0.87,-6.082 -1.68,-8.152 -0.79,-2.071 -1.73,-3.586 -2.86,-4.524 -1.11,-0.961 -2.37,-1.453 -3.8,-1.453 -2.39,0 -5.4,1.391 -9.05,4.164 -3.64,2.774 -8.38,5.867 -14.17,9.282 -5.8,3.414 -12.72,6.511 -20.72,9.285 -8.02,2.773 -17.61,4.16 -28.72,4.16 -12.23,0 -23.14,-2.516 -32.74,-7.531 -9.63,-5.016 -17.8,-12.188 -24.54,-21.512 -6.77,-9.305 -11.89,-20.574 -15.39,-33.805 -3.48,-13.23 -5.23,-28.105 -5.23,-44.687 0,-18.16 1.86,-33.867 5.61,-47.188 3.74,-13.293 9.08,-24.242 15.99,-32.84 m 360.36,-71.367 c -1.6,-1.277 -4.14,-2.195 -7.57,-2.75 -3.46,-0.535 -8.54,-0.832 -15.29,-0.832 -7.19,0 -12.44,0.297 -15.72,0.852 -3.29,0.554 -5.62,1.472 -6.98,2.754 -1.37,1.257 -2.05,3.031 -2.05,5.25 l 0,16.988 c -8.75,-9.414 -18.74,-16.797 -29.96,-22.176 -11.25,-5.355 -23.71,-8.043 -37.39,-8.043 -11.31,0 -21.7,1.473 -31.18,4.414 -9.48,2.946 -17.67,7.321 -24.61,13.149 -6.93,5.804 -12.29,13.015 -16.11,21.617 -3.84,8.578 -5.74,18.633 -5.74,30.09 0,12.422 2.41,23.199 7.28,32.375 4.84,9.132 12.1,16.711 21.72,22.687 9.63,5.973 21.62,10.371 35.94,13.25 14.32,2.86 30.96,4.289 49.92,4.289 l 20.76,0 0,13 c 0,6.719 -0.68,12.61 -2.02,17.649 -1.35,5.054 -3.59,9.261 -6.68,12.632 -3.1,3.352 -7.24,5.848 -12.41,7.45 -5.16,1.597 -11.56,2.41 -19.18,2.41 -10.01,0 -18.97,-1.11 -26.83,-3.309 -7.87,-2.218 -14.83,-4.652 -20.87,-7.32 -6.04,-2.688 -11.07,-5.121 -15.13,-7.32 -4.05,-2.219 -7.36,-3.305 -9.9,-3.305 -1.75,0 -3.31,0.555 -4.65,1.664 -1.35,1.109 -2.46,2.688 -3.33,4.758 -0.9,2.07 -1.56,4.609 -2.03,7.617 -0.49,3.012 -0.73,6.34 -0.73,9.988 0,4.91 0.41,8.793 1.2,11.653 0.81,2.859 2.32,5.422 4.55,7.726 2.22,2.305 6.12,4.844 11.71,7.617 5.57,2.774 12.12,5.379 19.62,7.746 7.48,2.391 15.64,4.333 24.49,5.829 8.84,1.515 17.97,2.281 27.38,2.281 16.73,0 31.04,-1.641 42.9,-4.906 11.89,-3.266 21.64,-8.282 29.3,-15.047 7.64,-6.766 13.21,-15.492 16.73,-26.164 3.5,-10.668 5.25,-23.325 5.25,-37.965 l 0,-143.348 c 0,-2.219 -0.79,-3.969 -2.39,-5.25 m -56.98,96.418 -22.92,0 c -9.71,0 -17.99,-0.723 -24.84,-2.152 -6.83,-1.453 -12.4,-3.61 -16.69,-6.469 -4.31,-2.879 -7.45,-6.359 -9.45,-10.457 -1.99,-4.074 -2.97,-8.75 -2.97,-14.02 0,-8.941 2.82,-15.984 8.47,-21.105 5.66,-5.102 13.49,-7.664 23.52,-7.664 8.43,0 16.2,2.156 23.26,6.469 7.09,4.308 14.3,10.625 21.62,18.949 l 0,36.449 m 255.79,88.824 c -0.32,-3.652 -0.81,-6.511 -1.43,-8.582 -0.66,-2.07 -1.49,-3.5 -2.51,-4.308 -1.05,-0.813 -2.37,-1.196 -3.95,-1.196 -1.3,0 -2.73,0.278 -4.33,0.832 -1.61,0.555 -3.4,1.153 -5.38,1.793 -2.01,0.641 -4.21,1.239 -6.6,1.793 -2.39,0.575 -5.01,0.852 -7.9,0.852 -3.34,0 -6.7,-0.684 -10.05,-2.027 -3.37,-1.344 -6.82,-3.457 -10.41,-6.317 -3.61,-2.859 -7.36,-6.679 -11.27,-11.461 -3.9,-4.758 -8.09,-10.648 -12.57,-17.648 l 0,-132.973 c 0,-1.601 -0.47,-3.012 -1.43,-4.207 -0.96,-1.195 -2.58,-2.176 -4.88,-2.988 -2.31,-0.809 -5.36,-1.387 -9.16,-1.793 -3.82,-0.383 -8.66,-0.594 -14.53,-0.594 -5.87,0 -10.72,0.211 -14.52,0.594 -3.81,0.406 -6.87,0.984 -9.17,1.793 -2.31,0.812 -3.93,1.793 -4.89,2.988 -0.94,1.195 -1.4,2.606 -1.4,4.207 l 0,213.344 c 0,1.601 0.38,2.988 1.17,4.203 0.79,1.195 2.22,2.176 4.29,2.988 2.07,0.789 4.71,1.387 7.98,1.793 3.24,0.383 7.34,0.598 12.25,0.598 5.07,0 9.28,-0.215 12.63,-0.598 3.33,-0.406 5.89,-1.004 7.73,-1.793 1.83,-0.812 3.13,-1.793 3.92,-2.988 0.81,-1.215 1.2,-2.602 1.2,-4.203 l 0,-26.547 c 5.59,7.914 10.86,14.445 15.79,19.59 4.95,5.121 9.65,9.199 14.13,12.207 4.46,3.008 8.94,5.101 13.4,6.293 4.46,1.195 8.92,1.793 13.4,1.793 2.07,0 4.31,-0.125 6.7,-0.36 2.39,-0.238 4.87,-0.64 7.43,-1.195 2.56,-0.555 4.78,-1.195 6.7,-1.902 1.92,-0.723 3.31,-1.473 4.19,-2.281 0.87,-0.789 1.51,-1.664 1.91,-2.625 0.39,-0.942 0.75,-2.262 1.07,-3.926 0.32,-1.668 0.58,-4.164 0.73,-7.492 0.15,-3.352 0.23,-7.875 0.23,-13.594 0,-5.719 -0.17,-10.414 -0.47,-14.063 m 155.28,-6.32 -46.86,0 0,-100.578 c 0,-11.695 1.83,-20.445 5.52,-26.293 3.67,-5.824 10.25,-8.75 19.72,-8.75 3.2,0 6.08,0.277 8.64,0.832 2.57,0.555 4.85,1.195 6.85,1.902 2.01,0.723 3.68,1.364 5.04,1.918 1.37,0.555 2.6,0.832 3.73,0.832 0.96,0 1.88,-0.277 2.76,-0.832 0.87,-0.554 1.56,-1.664 2.05,-3.347 0.49,-1.688 0.92,-3.95 1.32,-6.832 0.4,-2.879 0.6,-6.551 0.6,-11.032 0,-7.043 -0.43,-12.441 -1.3,-16.199 -0.88,-3.754 -2.05,-6.402 -3.48,-7.918 -1.45,-1.515 -3.57,-2.879 -6.36,-4.074 -2.8,-1.195 -6.08,-2.242 -9.82,-3.117 -3.75,-0.875 -7.83,-1.559 -12.23,-2.047 -4.39,-0.469 -8.83,-0.707 -13.31,-0.707 -11.98,0 -22.37,1.515 -31.14,4.547 -8.79,3.051 -16.07,7.726 -21.83,14.043 -5.74,6.316 -9.99,14.277 -12.7,23.879 -2.71,9.605 -4.08,20.957 -4.08,34.082 l 0,109.691 -25.65,0 c -3.03,0 -5.35,1.859 -6.96,5.613 -1.6,3.735 -2.39,9.989 -2.39,18.758 0,4.633 0.2,8.539 0.6,11.719 0.41,3.18 1.01,5.676 1.79,7.512 0.82,1.836 1.8,3.156 3.01,3.949 1.2,0.808 2.59,1.195 4.21,1.195 l 25.39,0 0,47.481 c 0,1.582 0.43,3.031 1.33,4.289 0.87,1.281 2.45,2.347 4.78,3.222 2.3,0.875 5.42,1.516 9.32,1.922 3.91,0.383 8.71,0.598 14.45,0.598 5.89,0 10.8,-0.215 14.71,-0.598 3.9,-0.406 6.97,-1.047 9.19,-1.922 2.24,-0.875 3.85,-1.941 4.78,-3.222 0.96,-1.258 1.46,-2.707 1.46,-4.289 l 0,-47.481 46.62,0 c 1.61,0 3.01,-0.387 4.21,-1.195 1.19,-0.793 2.2,-2.113 3.01,-3.949 0.79,-1.836 1.39,-4.332 1.79,-7.512 0.4,-3.18 0.6,-7.086 0.6,-11.719 0,-8.769 -0.79,-15.023 -2.39,-18.758 -1.6,-3.754 -3.93,-5.613 -6.98,-5.613 m 2163.6,86.602 -66.85,-252.719 c -0.9,-3.586 -2.14,-6.465 -3.72,-8.641 -1.58,-2.156 -3.95,-3.82 -7.09,-4.929 -3.15,-1.133 -7.19,-1.879 -12.14,-2.262 -4.95,-0.363 -11.25,-0.555 -18.89,-0.555 -8.53,0 -15.4,0.192 -20.57,0.555 -5.16,0.383 -9.26,1.129 -12.25,2.262 -2.99,1.109 -5.18,2.773 -6.53,4.929 -1.34,2.176 -2.39,5.055 -3.14,8.641 l -46.5,184.047 -0.44,0 -44.01,-184.047 c -0.75,-3.434 -1.79,-6.25 -3.13,-8.406 -1.37,-2.176 -3.5,-3.864 -6.43,-5.059 -2.92,-1.195 -6.89,-1.984 -11.91,-2.367 -5.01,-0.363 -11.63,-0.555 -19.89,-0.555 -8.69,0 -15.62,0.192 -20.78,0.555 -5.17,0.383 -9.24,1.129 -12.25,2.262 -2.99,1.109 -5.17,2.773 -6.51,4.929 -1.35,2.176 -2.48,5.055 -3.38,8.641 l -66.09,253.402 c -1.34,5.379 -2.11,9.606 -2.26,12.676 -0.15,3.074 0.71,5.422 2.58,7.066 1.88,1.641 4.93,2.668 9.2,3.032 4.25,0.382 10.2,0.574 17.82,0.574 7,0 12.57,-0.129 16.69,-0.34 4.1,-0.234 7.19,-0.77 9.28,-1.582 2.09,-0.809 3.52,-2.027 4.27,-3.582 0.75,-1.582 1.35,-3.777 1.79,-6.617 l 51.24,-222.438 0.24,0 52.99,220.86 c 0.59,2.836 1.36,5.164 2.34,6.957 0.98,1.793 2.63,3.179 4.96,4.136 2.32,0.985 5.5,1.668 9.54,2.032 4.05,0.382 9.43,0.574 16.17,0.574 7.17,0 12.91,-0.172 17.18,-0.449 4.25,-0.321 7.56,-0.938 9.88,-1.918 2.33,-0.985 3.99,-2.348 5.06,-4.164 1.05,-1.793 1.85,-4.184 2.45,-7.168 l 54.83,-220.86 0.45,0 51.43,221.754 c 0.44,2.391 1.04,4.461 1.77,6.168 0.75,1.727 2.17,3.074 4.27,4.031 2.07,0.985 5.05,1.668 8.94,2.032 3.88,0.382 9.32,0.574 16.35,0.574 6.55,0 11.67,-0.192 15.32,-0.574 3.65,-0.364 6.29,-1.391 7.94,-3.032 1.64,-1.644 2.35,-4.078 2.13,-7.3 -0.23,-3.223 -1,-7.598 -2.35,-13.125 m 218.43,-204.657 c -4.5,-14.066 -11.33,-26.187 -20.47,-36.343 -9.13,-10.18 -20.61,-18.036 -34.4,-23.563 -13.81,-5.504 -29.92,-8.281 -48.36,-8.281 -17.84,0 -33.35,2.457 -46.54,7.387 -13.21,4.949 -24.16,12.121 -32.85,21.531 -8.68,9.433 -15.13,21.023 -19.33,34.765 -4.21,13.743 -6.3,29.45 -6.3,47.098 0,17.051 2.29,32.633 6.86,46.758 4.56,14.129 11.43,26.25 20.57,36.344 9.15,10.093 20.57,17.906 34.29,23.433 13.73,5.528 29.82,8.301 48.25,8.301 18,0 33.59,-2.434 46.78,-7.297 13.19,-4.867 24.1,-11.996 32.72,-21.406 8.62,-9.434 15.05,-21.02 19.23,-34.766 4.2,-13.761 6.29,-29.535 6.29,-47.312 0,-17.051 -2.24,-32.61 -6.74,-46.649 m -53.74,71.364 c -1.6,8.281 -4.24,15.472 -8,21.597 -3.76,6.102 -8.77,10.883 -15,14.321 -6.24,3.433 -14.09,5.14 -23.56,5.14 -8.41,0 -15.8,-1.515 -22.09,-4.586 -6.32,-3.054 -11.5,-7.535 -15.56,-13.425 -4.07,-5.891 -7.1,-12.977 -9.13,-21.254 -2.03,-8.282 -3.03,-17.735 -3.03,-28.321 0,-9.84 0.81,-18.91 2.47,-27.187 1.64,-8.281 4.31,-15.473 8,-21.598 3.68,-6.125 8.67,-10.863 14.99,-14.215 6.31,-3.371 14.12,-5.035 23.45,-5.035 8.56,0 16.01,1.535 22.32,4.59 6.3,3.07 11.49,7.488 15.56,13.316 4.05,5.825 7.07,12.868 9.03,21.149 1.94,8.281 2.92,17.711 2.92,28.32 0,9.836 -0.79,18.906 -2.37,27.188 m 232.96,41.273 c -0.3,-3.457 -0.75,-6.148 -1.34,-8.109 -0.6,-1.942 -1.39,-3.289 -2.35,-4.035 -0.98,-0.747 -2.2,-1.129 -3.69,-1.129 -1.2,0 -2.54,0.254 -4.04,0.789 -1.49,0.511 -3.18,1.086 -5.03,1.683 -1.88,0.598 -3.93,1.153 -6.17,1.688 -2.24,0.512 -4.7,0.789 -7.38,0.789 -3.14,0 -6.28,-0.641 -9.42,-1.899 -3.14,-1.281 -6.38,-3.246 -9.73,-5.91 -3.35,-2.668 -6.87,-6.254 -10.52,-10.695 -3.65,-4.481 -7.58,-9.965 -11.76,-16.496 l 0,-124.777 c 0,-1.516 -0.45,-2.821 -1.34,-3.93 -0.9,-1.129 -2.46,-2.07 -4.63,-2.793 -2.2,-0.77 -5.08,-1.324 -8.71,-1.707 -3.61,-0.363 -8.17,-0.555 -13.74,-0.555 -5.57,0 -10.16,0.192 -13.79,0.555 -3.61,0.383 -6.49,0.937 -8.69,1.707 -2.17,0.723 -3.73,1.664 -4.63,2.793 -0.89,1.109 -1.34,2.414 -1.34,3.93 l 0,200.175 c 0,1.492 0.38,2.797 1.13,3.926 0.75,1.109 2.11,2.051 4.06,2.797 1.96,0.746 4.48,1.301 7.57,1.687 3.07,0.36 6.96,0.555 11.61,0.555 4.82,0 8.81,-0.195 11.97,-0.555 3.16,-0.386 5.59,-0.941 7.34,-1.687 1.73,-0.746 2.97,-1.688 3.72,-2.797 0.74,-1.129 1.13,-2.434 1.13,-3.926 l 0,-24.925 c 5.23,7.468 10.16,13.636 14.78,18.48 4.64,4.867 9.06,8.707 13.22,11.547 4.18,2.836 8.38,4.824 12.55,5.933 4.18,1.11 8.38,1.684 12.54,1.684 1.94,0 4.04,-0.105 6.3,-0.34 2.22,-0.234 4.54,-0.597 6.93,-1.133 2.39,-0.511 4.49,-1.129 6.28,-1.793 1.79,-0.683 3.09,-1.386 3.93,-2.132 0.81,-0.746 1.43,-1.579 1.79,-2.477 0.36,-0.894 0.7,-2.133 1,-3.711 0.3,-1.582 0.52,-3.949 0.68,-7.086 0.16,-3.16 0.22,-7.449 0.22,-12.847 0,-5.399 -0.15,-9.817 -0.45,-13.274 m 218.49,-172.266 c -0.77,-1.109 -2.05,-2.046 -3.84,-2.793 -1.8,-0.75 -4.23,-1.261 -7.32,-1.582 -3.08,-0.277 -6.85,-0.445 -11.36,-0.445 -4.8,0 -8.71,0.168 -11.69,0.445 -3.01,0.321 -5.44,0.832 -7.32,1.582 -1.88,0.747 -3.25,1.684 -4.05,2.793 -0.82,1.133 -1.24,2.52 -1.24,4.184 l 0,22.238 c -10.31,-11.078 -21.11,-19.656 -32.4,-25.8 -11.29,-6.125 -23.79,-9.18 -37.54,-9.18 -15.23,0 -28.13,2.945 -38.67,8.859 -10.52,5.891 -19.12,13.848 -25.78,23.879 -6.63,10.008 -11.46,21.727 -14.44,35.106 -2.99,13.359 -4.49,27.464 -4.49,42.277 0,17.777 1.9,33.781 5.72,47.996 3.8,14.191 9.37,26.293 16.69,36.32 7.32,10.012 16.43,17.715 27.34,23.114 10.9,5.379 23.45,8.066 37.66,8.066 11.19,0 21.35,-2.281 30.48,-6.852 9.11,-4.542 18.14,-11.246 27.1,-20.058 l 0,108.496 c 0,1.496 0.43,2.84 1.24,4.055 0.83,1.195 2.33,2.199 4.51,3.031 2.17,0.812 5.07,1.453 8.66,1.898 3.6,0.45 8.17,0.684 13.72,0.684 5.55,0 10.12,-0.234 13.72,-0.684 3.61,-0.445 6.45,-1.086 8.56,-1.898 2.11,-0.832 3.61,-1.836 4.5,-3.031 0.9,-1.215 1.35,-2.559 1.35,-4.032 l 0,-294.503 c 0,-1.645 -0.39,-3.032 -1.11,-4.165 m -55.15,137.883 c -8.04,10.055 -15.77,17.735 -23.15,23.071 -7.39,5.316 -15.11,7.98 -23.16,7.98 -7.32,0 -13.61,-1.832 -18.91,-5.461 -5.29,-3.648 -9.55,-8.516 -12.76,-14.617 -3.22,-6.086 -5.61,-12.891 -7.17,-20.402 -1.55,-7.512 -2.34,-15.219 -2.34,-23.094 0,-8.32 0.66,-16.43 2.02,-24.305 1.32,-7.898 3.52,-14.918 6.6,-21.086 3.05,-6.168 7.13,-11.117 12.18,-14.832 5.08,-3.715 11.51,-5.57 19.25,-5.57 3.88,0 7.67,0.535 11.31,1.644 3.65,1.129 7.39,2.922 11.19,5.442 3.79,2.519 7.72,5.804 11.76,9.879 4.01,4.054 8.43,9.05 13.18,14.961 l 0,66.39 m 308,17.414 c -5.08,-12.609 -12.47,-23.218 -22.16,-31.816 -9.68,-8.621 -21.57,-15.195 -35.68,-19.676 -14.08,-4.504 -30.69,-6.746 -49.77,-6.746 l -24.15,0 0,-92.469 c 0,-1.496 -0.49,-2.84 -1.48,-4.035 -0.98,-1.195 -2.6,-2.176 -4.86,-2.902 -2.24,-0.746 -5.25,-1.344 -9.01,-1.793 -3.77,-0.445 -8.6,-0.68 -14.47,-0.68 -5.72,0 -10.5,0.235 -14.34,0.68 -3.82,0.449 -6.87,1.047 -9.13,1.793 -2.26,0.746 -3.84,1.73 -4.74,2.926 -0.89,1.195 -1.34,2.539 -1.34,4.031 l 0,261.344 c 0,7.039 1.81,12.312 5.48,15.832 3.67,3.5 8.5,5.273 14.47,5.273 l 68.42,0 c 6.87,0 13.42,-0.258 19.63,-0.789 6.21,-0.535 13.64,-1.645 22.32,-3.375 8.67,-1.727 17.46,-4.906 26.36,-9.559 8.9,-4.652 16.48,-10.523 22.77,-17.648 6.28,-7.129 11.06,-15.453 14.34,-24.949 3.29,-9.516 4.96,-20.211 4.96,-32.055 0,-16.324 -2.55,-30.793 -7.62,-43.387 m -59.61,64.301 c -3.56,6.617 -7.94,11.484 -13.14,14.641 -5.19,3.136 -10.65,5.144 -16.38,5.953 -5.71,0.832 -11.61,1.238 -17.69,1.238 l -24.94,0 0,-98.742 26.27,0 c 9.36,0 17.2,1.258 23.49,3.82 6.32,2.539 11.46,6.102 15.48,10.668 4.01,4.59 7.04,10.051 9.13,16.434 2.07,6.379 3.12,13.316 3.12,20.808 0,10.2 -1.77,18.586 -5.34,25.18 m 237.84,-47.332 c -0.29,-3.457 -0.74,-6.148 -1.34,-8.109 -0.6,-1.942 -1.39,-3.289 -2.35,-4.035 -0.98,-0.747 -2.2,-1.129 -3.69,-1.129 -1.19,0 -2.54,0.254 -4.03,0.789 -1.5,0.511 -3.18,1.086 -5.04,1.683 -1.88,0.598 -3.93,1.153 -6.17,1.688 -2.24,0.512 -4.69,0.789 -7.38,0.789 -3.14,0 -6.27,-0.641 -9.41,-1.899 -3.14,-1.281 -6.38,-3.246 -9.74,-5.91 -3.37,-2.668 -6.87,-6.254 -10.51,-10.695 -3.68,-4.481 -7.58,-9.965 -11.76,-16.496 l 0,-124.777 c 0,-1.516 -0.45,-2.821 -1.37,-3.93 -0.89,-1.129 -2.43,-2.07 -4.61,-2.793 -2.2,-0.77 -5.08,-1.324 -8.71,-1.707 -3.6,-0.363 -8.19,-0.555 -13.74,-0.555 -5.57,0 -10.16,0.192 -13.79,0.555 -3.6,0.383 -6.49,0.937 -8.68,1.707 -2.18,0.723 -3.74,1.664 -4.63,2.793 -0.9,1.109 -1.35,2.414 -1.35,3.93 l 0,200.175 c 0,1.492 0.37,2.797 1.14,3.926 0.74,1.109 2.09,2.051 4.05,2.797 1.94,0.746 4.48,1.301 7.57,1.687 3.08,0.36 6.94,0.555 11.61,0.555 4.83,0 8.8,-0.195 11.98,-0.555 3.16,-0.386 5.59,-0.941 7.32,-1.687 1.72,-0.746 2.96,-1.688 3.73,-2.797 0.75,-1.129 1.13,-2.434 1.13,-3.926 l 0,-24.925 c 5.23,7.468 10.16,13.636 14.79,18.48 4.63,4.867 9.03,8.707 13.21,11.547 4.18,2.836 8.37,4.824 12.55,5.933 4.18,1.11 8.37,1.684 12.55,1.684 1.94,0 4.03,-0.105 6.27,-0.34 2.24,-0.234 4.57,-0.597 6.96,-1.133 2.37,-0.511 4.46,-1.129 6.28,-1.793 1.78,-0.683 3.09,-1.386 3.92,-2.132 0.81,-0.746 1.41,-1.579 1.79,-2.477 0.37,-0.894 0.71,-2.133 1.01,-3.711 0.29,-1.582 0.51,-3.949 0.66,-7.086 0.15,-3.16 0.23,-7.449 0.23,-12.847 0,-5.399 -0.15,-9.817 -0.45,-13.274 m 211.07,-77.148 c -3.08,-3.286 -7.3,-4.93 -12.7,-4.93 l -122.07,0 c 0,-8.602 1,-16.391 3.03,-23.391 2.02,-7 5.25,-12.953 9.69,-17.84 4.42,-4.886 10.11,-8.621 17.09,-11.183 6.98,-2.559 15.32,-3.84 25.08,-3.84 9.88,0 18.59,0.703 26.08,2.133 7.51,1.43 13.98,3.008 19.46,4.738 5.46,1.731 10.01,3.309 13.61,4.738 3.59,1.43 6.51,2.133 8.78,2.133 1.34,0 2.45,-0.254 3.34,-0.789 0.9,-0.512 1.67,-1.449 2.27,-2.797 0.59,-1.343 1,-3.242 1.23,-5.695 0.22,-2.477 0.35,-5.57 0.35,-9.285 0,-3.309 -0.09,-6.102 -0.24,-8.406 -0.15,-2.329 -0.38,-4.293 -0.66,-5.934 -0.32,-1.645 -0.77,-3.031 -1.34,-4.141 -0.62,-1.132 -1.39,-2.218 -2.37,-3.265 -0.99,-1.047 -3.65,-2.453 -8.01,-4.246 -4.33,-1.793 -9.88,-3.567 -16.62,-5.293 -6.74,-1.707 -14.47,-3.203 -23.16,-4.481 -8.68,-1.262 -17.98,-1.902 -27.86,-1.902 -17.85,0 -33.47,2.242 -46.89,6.723 -13.4,4.484 -24.61,11.289 -33.61,20.402 -8.99,9.137 -15.71,20.637 -20.11,34.551 -4.44,13.894 -6.64,30.199 -6.64,48.894 0,17.778 2.31,33.824 6.97,48.102 4.64,14.277 11.39,26.398 20.23,36.32 8.83,9.945 19.59,17.543 32.24,22.773 12.65,5.227 26.93,7.852 42.81,7.852 16.8,0 31.14,-2.453 43.04,-7.383 11.91,-4.929 21.69,-11.738 29.33,-20.488 7.64,-8.727 13.27,-19.035 16.86,-30.965 3.58,-11.949 5.4,-24.926 5.4,-38.949 l 0,-8.961 c 0,-6.852 -1.54,-11.93 -4.61,-15.195 M 6295,456.457 c -6.81,9.004 -17.33,13.508 -31.52,13.508 -7.19,0 -13.44,-1.344 -18.74,-4.012 -5.31,-2.687 -9.73,-6.297 -13.25,-10.82 -3.52,-4.547 -6.21,-9.879 -8.07,-16.07 -1.87,-6.168 -2.96,-12.739 -3.26,-19.739 l 84.38,0 c 0.45,15.77 -2.73,28.149 -9.54,37.133 m 168.51,-27.68 c 4.65,-2.414 9.92,-4.652 15.85,-6.746 5.92,-2.09 11.94,-4.375 18,-6.828 6.08,-2.476 12.07,-5.355 18.01,-8.64 5.91,-3.29 11.2,-7.321 15.85,-12.102 4.66,-4.801 8.39,-10.52 11.23,-17.16 2.86,-6.68 4.29,-14.555 4.29,-23.664 0,-11.375 -2.13,-21.387 -6.4,-30.051 -4.29,-8.684 -10.33,-15.941 -18.12,-21.766 -7.79,-5.828 -17.01,-10.203 -27.66,-13.105 -10.63,-2.922 -22.17,-4.375 -34.61,-4.375 -7.52,0 -14.66,0.555 -21.5,1.687 -6.8,1.133 -12.91,2.563 -18.31,4.289 -5.39,1.731 -9.9,3.5 -13.48,5.317 -3.61,1.789 -6.23,3.496 -7.88,5.078 -1.66,1.578 -2.92,4.055 -3.82,7.426 -0.89,3.351 -1.34,8.343 -1.34,14.918 0,4.351 0.15,7.832 0.45,10.433 0.27,2.625 0.72,4.719 1.34,6.278 0.6,1.578 1.34,2.625 2.26,3.156 0.9,0.512 2.01,0.789 3.37,0.789 1.65,0 4.08,-0.938 7.3,-2.816 3.22,-1.856 7.24,-3.907 12.04,-6.145 4.82,-2.242 10.39,-4.332 16.77,-6.254 6.39,-1.941 13.62,-2.902 21.73,-2.902 5.1,0 9.62,0.511 13.61,1.535 3.97,1.047 7.41,2.519 10.35,4.461 2.93,1.922 5.12,4.355 6.64,7.344 1.5,2.941 2.26,6.359 2.26,10.218 0,4.485 -1.38,8.325 -4.16,11.547 -2.77,3.223 -6.44,6.02 -11.01,8.41 -4.59,2.387 -9.75,4.629 -15.52,6.719 -5.78,2.094 -11.69,4.418 -17.75,6.961 -6.09,2.539 -12,5.441 -17.76,8.746 -5.76,3.289 -10.95,7.32 -15.51,12.125 -4.57,4.778 -8.24,10.52 -11.01,17.262 -2.78,6.723 -4.16,14.789 -4.16,24.223 0,9.562 1.87,18.355 5.61,26.355 3.75,7.984 9.13,14.832 16.17,20.512 7.05,5.676 15.61,10.093 25.72,13.23 10.12,3.137 21.47,4.715 34.04,4.715 6.3,0 12.4,-0.449 18.31,-1.363 5.91,-0.918 11.27,-2.051 16.07,-3.418 4.78,-1.363 8.83,-2.836 12.12,-4.418 3.29,-1.598 5.65,-2.965 7.08,-4.094 1.41,-1.133 2.44,-2.266 3.04,-3.394 0.59,-1.133 1.04,-2.477 1.34,-4.036 0.3,-1.578 0.55,-3.519 0.79,-5.847 0.21,-2.324 0.34,-5.207 0.34,-8.664 0,-4.032 -0.13,-7.34 -0.34,-9.879 -0.24,-2.563 -0.6,-4.567 -1.13,-6.063 -0.54,-1.515 -1.24,-2.515 -2.13,-3.051 -0.9,-0.511 -1.97,-0.769 -3.16,-0.769 -1.35,0 -3.44,0.789 -6.3,2.371 -2.84,1.598 -6.4,3.309 -10.67,5.121 -4.29,1.813 -9.22,3.52 -14.85,5.121 -5.61,1.578 -12.04,2.391 -19.23,2.391 -5.1,0 -9.52,-0.535 -13.27,-1.578 -3.76,-1.028 -6.84,-2.52 -9.22,-4.461 -2.42,-1.942 -4.21,-4.203 -5.4,-6.828 -1.22,-2.606 -1.8,-5.403 -1.8,-8.368 0,-4.628 1.41,-8.535 4.27,-11.671 2.84,-3.137 6.6,-5.914 11.25,-8.282 m 183.49,0 c 4.65,-2.414 9.94,-4.652 15.88,-6.746 5.91,-2.09 11.91,-4.375 17.99,-6.828 6.08,-2.476 12.08,-5.355 17.99,-8.64 5.93,-3.29 11.22,-7.321 15.85,-12.102 4.65,-4.801 8.41,-10.52 11.25,-17.16 2.86,-6.68 4.29,-14.555 4.29,-23.664 0,-11.375 -2.16,-21.387 -6.43,-30.051 -4.27,-8.684 -10.3,-15.941 -18.09,-21.766 -7.79,-5.828 -17.01,-10.203 -27.66,-13.105 -10.65,-2.922 -22.19,-4.375 -34.64,-4.375 -7.49,0 -14.64,0.555 -21.47,1.687 -6.8,1.133 -12.93,2.563 -18.3,4.289 -5.41,1.731 -9.91,3.5 -13.52,5.317 -3.58,1.789 -6.21,3.496 -7.87,5.078 -1.64,1.578 -2.9,4.055 -3.8,7.426 -0.92,3.351 -1.36,8.343 -1.36,14.918 0,4.351 0.14,7.832 0.44,10.433 0.3,2.625 0.75,4.719 1.37,6.278 0.6,1.578 1.35,2.625 2.24,3.156 0.9,0.512 2.03,0.789 3.39,0.789 1.65,0 4.08,-0.938 7.3,-2.816 3.22,-1.856 7.24,-3.907 12.04,-6.145 4.8,-2.242 10.39,-4.332 16.77,-6.254 6.38,-1.941 13.62,-2.902 21.73,-2.902 5.07,0 9.62,0.511 13.59,1.535 3.99,1.047 7.43,2.519 10.38,4.461 2.92,1.922 5.12,4.355 6.63,7.344 1.49,2.941 2.24,6.359 2.24,10.218 0,4.485 -1.39,8.325 -4.16,11.547 -2.75,3.223 -6.44,6.02 -11.01,8.41 -4.57,2.387 -9.73,4.629 -15.49,6.719 -5.79,2.094 -11.7,4.418 -17.76,6.961 -6.08,2.539 -11.99,5.441 -17.76,8.746 -5.78,3.289 -10.94,7.32 -15.51,12.125 -4.57,4.778 -8.24,10.52 -11.01,17.262 -2.78,6.723 -4.17,14.789 -4.17,24.223 0,9.562 1.86,18.355 5.62,26.355 3.73,7.984 9.13,14.832 16.17,20.512 7.03,5.676 15.6,10.093 25.72,13.23 10.11,3.137 21.47,4.715 34.04,4.715 6.29,0 12.4,-0.449 18.31,-1.363 5.91,-0.918 11.27,-2.051 16.07,-3.418 4.78,-1.363 8.81,-2.836 12.12,-4.418 3.29,-1.598 5.66,-2.965 7.06,-4.094 1.44,-1.133 2.44,-2.266 3.06,-3.394 0.6,-1.133 1.04,-2.477 1.34,-4.036 0.3,-1.578 0.56,-3.519 0.77,-5.847 0.24,-2.324 0.34,-5.207 0.34,-8.664 0,-4.032 -0.1,-7.34 -0.34,-9.879 -0.21,-2.563 -0.58,-4.567 -1.11,-6.063 -0.53,-1.515 -1.24,-2.515 -2.14,-3.051 -0.91,-0.511 -1.96,-0.769 -3.15,-0.769 -1.35,0 -3.44,0.789 -6.3,2.371 -2.86,1.598 -6.42,3.309 -10.69,5.121 -4.27,1.813 -9.2,3.52 -14.83,5.121 -5.63,1.578 -12.04,2.391 -19.25,2.391 -5.08,0 -9.52,-0.535 -13.26,-1.578 -3.75,-1.028 -6.82,-2.52 -9.21,-4.461 -2.41,-1.942 -4.21,-4.203 -5.4,-6.828 -1.22,-2.606 -1.82,-5.403 -1.82,-8.368 0,-4.628 1.43,-8.535 4.27,-11.671 2.86,-3.137 6.62,-5.914 11.25,-8.282 m 424.38,19.418 c -5.08,-12.609 -12.46,-23.218 -22.15,-31.816 -9.69,-8.621 -21.6,-15.195 -35.68,-19.676 -14.11,-4.504 -30.69,-6.746 -49.77,-6.746 l -24.15,0 0,-92.469 c 0,-1.496 -0.52,-2.84 -1.5,-4.035 -0.96,-1.195 -2.58,-2.176 -4.84,-2.902 -2.27,-0.746 -5.27,-1.344 -9.03,-1.793 -3.76,-0.445 -8.58,-0.68 -14.45,-0.68 -5.72,0 -10.5,0.235 -14.34,0.68 -3.84,0.449 -6.87,1.047 -9.13,1.793 -2.27,0.746 -3.84,1.73 -4.74,2.926 -0.92,1.195 -1.37,2.539 -1.37,4.031 l 0,261.344 c 0,7.039 1.84,12.312 5.51,15.832 3.67,3.5 8.49,5.273 14.47,5.273 l 68.42,0 c 6.87,0 13.4,-0.258 19.61,-0.789 6.21,-0.535 13.66,-1.645 22.34,-3.375 8.67,-1.727 17.44,-4.906 26.36,-9.559 8.88,-4.652 16.47,-10.523 22.75,-17.648 6.27,-7.129 11.08,-15.453 14.36,-24.949 3.29,-9.516 4.93,-20.211 4.93,-32.055 0,-16.324 -2.54,-30.793 -7.6,-43.387 m -59.62,64.301 c -3.57,6.617 -7.94,11.484 -13.13,14.641 -5.2,3.136 -10.65,5.144 -16.37,5.953 -5.72,0.832 -11.63,1.238 -17.71,1.238 l -24.92,0 0,-98.742 26.26,0 c 9.35,0 17.18,1.258 23.5,3.82 6.32,2.539 11.46,6.102 15.47,10.668 4,4.59 7.05,10.051 9.14,16.434 2.07,6.379 3.11,13.316 3.11,20.808 0,10.2 -1.79,18.586 -5.35,25.18 m 165.07,-219.363 c -0.9,-1.129 -2.44,-2.07 -4.63,-2.793 -2.18,-0.77 -5.08,-1.324 -8.69,-1.707 -3.6,-0.363 -8.19,-0.555 -13.76,-0.555 -5.57,0 -10.16,0.192 -13.77,0.555 -3.6,0.383 -6.51,0.937 -8.68,1.707 -2.2,0.723 -3.74,1.664 -4.64,2.793 -0.89,1.109 -1.34,2.414 -1.34,3.93 l 0,295.121 c 0,1.496 0.45,2.839 1.34,4.035 0.9,1.195 2.44,2.195 4.64,3.027 2.17,0.813 5.08,1.473 8.68,1.922 3.61,0.449 8.2,0.664 13.77,0.664 5.57,0 10.16,-0.215 13.76,-0.664 3.61,-0.449 6.51,-1.109 8.69,-1.922 2.19,-0.832 3.73,-1.832 4.63,-3.027 0.9,-1.196 1.37,-2.539 1.37,-4.035 l 0,-295.121 c 0,-1.516 -0.47,-2.821 -1.37,-3.93 m 246.34,0 c -0.75,-1.129 -2.05,-2.07 -3.93,-2.793 -1.88,-0.77 -4.35,-1.324 -7.43,-1.707 -3.09,-0.363 -6.93,-0.555 -11.58,-0.555 -4.98,0 -8.99,0.192 -12.06,0.555 -3.08,0.383 -5.51,0.937 -7.32,1.707 -1.8,0.723 -3.08,1.664 -3.82,2.793 -0.75,1.109 -1.11,2.414 -1.11,3.93 l 0,23.109 c -11.1,-11.949 -22.37,-20.914 -33.81,-26.887 -11.48,-5.957 -23.34,-8.945 -35.61,-8.945 -13.77,0 -25.36,2.242 -34.7,6.723 -9.37,4.484 -16.95,10.609 -22.71,18.398 -5.76,7.766 -9.88,16.793 -12.34,27.039 -2.47,10.242 -3.71,22.984 -3.71,38.242 l 0,122.496 c 0,1.492 0.41,2.797 1.24,3.926 0.81,1.109 2.3,2.051 4.48,2.797 2.15,0.746 5.08,1.301 8.73,1.687 3.67,0.36 8.17,0.555 13.57,0.555 5.53,0 10.07,-0.195 13.66,-0.555 3.58,-0.386 6.46,-0.941 8.64,-1.687 2.16,-0.746 3.69,-1.688 4.59,-2.797 0.9,-1.109 1.34,-2.434 1.34,-3.926 l 0,-112.914 c 0,-10.437 0.67,-18.437 2.03,-23.965 1.35,-5.527 3.42,-10.265 6.19,-14.214 2.78,-3.969 6.28,-7.02 10.56,-9.2 4.27,-2.152 9.27,-3.242 14.97,-3.242 7.21,0 14.44,2.606 21.72,7.77 7.28,5.183 15.03,12.761 23.28,22.683 l 0,133.082 c 0,1.492 0.41,2.797 1.24,3.926 0.81,1.109 2.33,2.051 4.51,2.797 2.17,0.746 5.05,1.301 8.66,1.687 3.58,0.36 8.17,0.555 13.72,0.555 5.55,0 10.12,-0.195 13.72,-0.555 3.59,-0.386 6.45,-0.941 8.56,-1.687 2.09,-0.746 3.61,-1.688 4.5,-2.797 0.9,-1.129 1.35,-2.434 1.35,-3.926 l 0,-200.175 c 0,-1.516 -0.39,-2.821 -1.13,-3.93 m 236.46,174.465 c -1.67,-3.438 -3.68,-5.145 -6.09,-5.145 l -23.58,0 c 3.31,-3.629 5.66,-7.769 7.09,-12.379 1.4,-4.609 2.13,-9.41 2.13,-14.406 0,-11.715 -1.97,-22.105 -5.85,-31.199 -3.88,-9.09 -9.47,-16.75 -16.73,-22.985 -7.28,-6.23 -16.03,-10.968 -26.29,-14.191 -10.24,-3.223 -21.66,-4.844 -34.23,-4.844 -6.45,0 -12.6,0.789 -18.42,2.367 -5.85,1.582 -10.35,3.418 -13.49,5.528 -1.79,-1.942 -3.41,-4.246 -4.82,-6.914 -1.43,-2.688 -2.14,-5.653 -2.14,-8.942 0,-4.308 1.91,-7.832 5.72,-10.586 3.82,-2.75 9.18,-4.265 16.07,-4.566 l 48.75,-1.793 c 11.37,-0.445 21.51,-2.07 30.43,-4.82 8.9,-2.778 16.39,-6.66 22.45,-11.676 6.06,-5.016 10.71,-11.012 13.94,-18.055 3.22,-7.019 4.82,-15.023 4.82,-23.984 0,-9.86 -2.18,-19.188 -6.51,-27.938 -4.35,-8.75 -10.86,-16.324 -19.55,-22.769 -8.69,-6.403 -19.57,-11.504 -32.67,-15.238 -13.12,-3.735 -28.43,-5.614 -45.93,-5.614 -17.07,0 -31.64,1.367 -43.7,4.055 -12.04,2.691 -21.94,6.445 -29.65,11.226 -7.72,4.801 -13.33,10.52 -16.83,17.18 -3.52,6.68 -5.3,13.977 -5.3,21.895 0,4.953 0.64,9.668 1.93,14.148 1.25,4.504 3.13,8.817 5.61,12.914 2.47,4.141 5.5,8.043 9.09,11.801 3.6,3.734 7.7,7.34 12.35,10.777 -6.44,3.434 -11.41,8.086 -14.93,13.977 -3.53,5.891 -5.28,12.336 -5.28,19.336 0,8.793 2.03,16.816 6.07,24.031 4.05,7.234 9.28,13.762 15.72,19.566 -5.25,5.274 -9.43,11.571 -12.59,18.93 -3.13,7.363 -4.71,16.52 -4.71,27.488 0,11.715 2.07,22.172 6.19,31.415 4.11,9.242 9.84,17.05 17.18,23.433 7.33,6.379 16.08,11.266 26.26,14.637 10.18,3.394 21.41,5.082 33.7,5.082 6.3,0 12.32,-0.406 18.08,-1.152 5.76,-0.77 11.12,-1.86 16.07,-3.223 l 63.55,0 c 2.54,0 4.61,-1.645 6.19,-4.93 1.56,-3.289 2.35,-8.793 2.35,-16.562 0,-7.149 -0.83,-12.442 -2.45,-15.875 M 7513.84,269.082 c 0,-7.469 3.78,-13.144 11.34,-17.051 7.55,-3.863 18.24,-5.824 32.01,-5.824 8.53,0 15.72,0.852 21.58,2.582 5.82,1.707 10.53,4.012 14.14,6.828 3.59,2.86 6.13,6.039 7.64,9.539 1.5,3.52 2.24,7.235 2.24,11.117 0,6.723 -2.68,11.887 -8.09,15.473 -5.4,3.586 -12.8,5.527 -22.23,5.848 l -40.21,1.109 c -3.9,-2.836 -7,-5.57 -9.33,-8.195 -2.32,-2.602 -4.18,-5.121 -5.61,-7.512 -1.43,-2.391 -2.34,-4.695 -2.79,-6.957 -0.45,-2.238 -0.69,-4.543 -0.69,-6.957 m 66.71,191.879 c -5.99,5.996 -14.44,9.004 -25.37,9.004 -5.55,0 -10.41,-0.938 -14.62,-2.817 -4.18,-1.878 -7.66,-4.418 -10.43,-7.64 -2.78,-3.223 -4.83,-6.981 -6.17,-11.246 -1.37,-4.289 -2.03,-8.731 -2.03,-13.383 0,-10.199 2.99,-18.246 8.99,-24.18 5.97,-5.91 14.29,-8.875 24.92,-8.875 5.68,0 10.63,0.918 14.84,2.711 4.18,1.793 7.66,4.266 10.43,7.426 2.78,3.137 4.87,6.785 6.3,10.906 1.41,4.117 2.13,8.43 2.13,12.91 0,10.797 -3.01,19.184 -8.99,25.184 m 172.36,80.516 c -4.64,-4.352 -13.24,-6.528 -25.78,-6.528 -12.7,0 -21.26,2.114 -25.66,6.317 -4.42,4.183 -6.61,11.757 -6.61,22.707 0,11.394 2.28,19.293 6.83,23.73 4.56,4.418 13.19,6.637 25.9,6.637 12.55,0 21.07,-2.156 25.55,-6.426 4.48,-4.266 6.72,-11.887 6.72,-22.812 0,-11.395 -2.32,-19.27 -6.95,-23.625 m -47.7,-37.856 c 2.2,0.809 5.08,1.473 8.68,1.918 3.63,0.449 8.22,0.664 13.79,0.664 5.55,0 10.14,-0.215 13.74,-0.664 3.63,-0.445 6.51,-1.109 8.71,-1.918 2.18,-0.812 3.71,-1.793 4.63,-2.902 0.9,-1.133 1.35,-2.434 1.35,-3.93 l 0,-199.726 c 0,-1.516 -0.45,-2.821 -1.35,-3.93 -0.92,-1.129 -2.45,-2.07 -4.63,-2.793 -2.2,-0.77 -5.08,-1.324 -8.71,-1.707 -3.6,-0.363 -8.19,-0.555 -13.74,-0.555 -5.57,0 -10.16,0.192 -13.79,0.555 -3.6,0.383 -6.48,0.937 -8.68,1.707 -2.18,0.723 -3.74,1.664 -4.63,2.793 -0.9,1.109 -1.35,2.414 -1.35,3.93 l 0,199.726 c 0,1.496 0.45,2.797 1.35,3.93 0.89,1.109 2.45,2.09 4.63,2.902 m 296.92,-210.488 c -0.92,-1.129 -2.42,-2.07 -4.49,-2.793 -2.09,-0.77 -4.97,-1.324 -8.64,-1.707 -3.65,-0.363 -8.18,-0.555 -13.55,-0.555 -5.53,0 -10.14,0.192 -13.79,0.555 -3.65,0.383 -6.53,0.937 -8.62,1.683 -2.09,0.747 -3.59,1.688 -4.48,2.797 -0.9,1.129 -1.35,2.434 -1.35,3.926 l 0,114.024 c 0,9.71 -0.7,17.332 -2.13,22.859 -1.43,5.523 -3.48,10.262 -6.17,14.234 -2.66,3.946 -6.14,6.996 -10.39,9.176 -4.25,2.176 -9.22,3.242 -14.88,3.242 -7.17,0 -14.42,-2.601 -21.72,-7.832 -7.32,-5.226 -14.92,-12.847 -22.83,-22.855 l 0,-132.848 c 0,-1.492 -0.45,-2.797 -1.35,-3.926 -0.92,-1.109 -2.45,-2.05 -4.63,-2.797 -2.2,-0.746 -5.08,-1.3 -8.71,-1.683 -3.6,-0.363 -8.19,-0.555 -13.74,-0.555 -5.57,0 -10.16,0.192 -13.79,0.555 -3.6,0.383 -6.49,0.937 -8.68,1.707 -2.18,0.723 -3.74,1.664 -4.64,2.793 -0.89,1.109 -1.34,2.414 -1.34,3.93 l 0,200.175 c 0,1.492 0.36,2.797 1.13,3.926 0.75,1.109 2.11,2.051 4.06,2.797 1.96,0.746 4.48,1.301 7.57,1.687 3.08,0.36 6.96,0.555 11.61,0.555 4.83,0 8.81,-0.195 11.97,-0.555 3.16,-0.386 5.59,-0.941 7.33,-1.687 1.72,-0.746 2.98,-1.688 3.73,-2.797 0.75,-1.129 1.13,-2.434 1.13,-3.926 l 0,-23.113 c 11.06,11.93 22.3,20.895 33.72,26.871 11.42,5.973 23.33,8.961 35.72,8.961 13.6,0 25.08,-2.238 34.41,-6.723 9.32,-4.504 16.87,-10.586 22.62,-18.289 5.76,-7.703 9.9,-16.73 12.44,-27.039 2.54,-10.328 3.82,-22.726 3.82,-37.238 l 0,-123.605 c 0,-1.516 -0.45,-2.821 -1.34,-3.93"
         id="path24" />
    </clipPath>
  </defs>
  <sodipodi:namedview
     id="base"
     pagecolor="#ffffff"
     bordercolor="#666666"
     borderopacity="1.0"
     inkscape:pageopacity="0.0"
     inkscape:pageshadow="2"
     inkscape:zoom="1.979899"
     inkscape:cx="39.783172"
     inkscape:cy="66.531954"
     inkscape:document-units="px"
     inkscape:current-layer="layer2"
     showgrid="false"
     inkscape:window-width="1920"
     inkscape:window-height="1056"
     inkscape:window-x="0"
     inkscape:window-y="24"
     inkscape:window-maximized="1" />
  <metadata
     id="metadata3010">
    <rdf:RDF>
      <cc:Work
         rdf:about="">
        <dc:format>image/svg+xml</dc:format>
        <dc:type
           rdf:resource="http://purl.org/dc/dcmitype/StillImage" />
        <dc:title></dc:title>
      </cc:Work>
    </rdf:RDF>
  </metadata>
  <g
     inkscape:groupmode="layer"
     id="layer2"
     inkscape:label="Background"
     transform="translate(0,128)"
     sodipodi:insensitive="true">
    <rect
       style="fill:#ffffff;fill-opacity:1;stroke:none"
       id="rect3093"
       width="256"
       height="256"
       x="0"
       y="-128" />
  </g>
  <g
     inkscape:label="Layer 1"
     inkscape:groupmode="layer"
     id="layer1"
     transform="translate(0,-796.36218)"
     style="display:inline"
     sodipodi:insensitive="true">
    <g
       transform="matrix(0.78061752,0,0,-0.78061752,-83.15377,1236.1125)"
       id="g3791">
      <path
         inkscape:connector-curvature="0"
         id="path12"
         style="fill:#000000;fill-opacity:1;fill-rule:nonzero;stroke:none"
         d="m 247.2832,264.1572 c 14.4766,-1.4609 26.9844,4.9991 27.9385,14.4317 0.5625,5.5752 -3.0386,10.9404 -9.0654,14.6992 4.2988,-3.0078 6.8041,-7.0781 6.3764,-11.2959 -0.7729,-7.6709 -10.9448,-12.9248 -22.7168,-11.7334 -11.77,1.1904 -20.6846,8.3691 -19.9092,16.042 0.7754,7.6709 10.9478,12.9209 22.7168,11.7305 0.357,-0.0342 0.7119,-0.0762 1.065,-0.125 -0.9658,0.1708 -1.9507,0.3076 -2.9527,0.4101 -14.478,1.4649 -26.9843,-4.998 -27.9375,-14.4316 -0.9541,-9.4317 10.0088,-18.2627 24.4849,-19.7276 z" />
      <path
         inkscape:connector-curvature="0"
         id="path14"
         style="fill:#000000;fill-opacity:1;fill-rule:nonzero;stroke:none"
         d="m 240.1323,238.335 c 26.814,-2.7071 49.8955,9.2656 51.7486,26.7275 1.3994,13.1846 -7.8829,24.0137 -21.9156,30.1045 10.6924,-6.6934 17.7022,-14.4834 16.9351,-23.7998 -1.1714,-14.2305 -20.273,-23.9385 -42.0757,-21.7315 -21.7998,2.2041 -38.311,15.5059 -36.8755,29.709 1.4385,14.208 20.2769,23.9346 42.0747,21.7305 0.6636,-0.0674 1.3199,-0.1445 1.9717,-0.2334 -1.7886,0.3174 -3.6118,0.5703 -5.4668,0.7617 -26.814,2.709 -49.9795,-9.2568 -51.7446,-26.7295 -1.7666,-17.4697 18.5366,-33.8291 45.3481,-36.539 z" />
      <path
         inkscape:connector-curvature="0"
         id="path16"
         style="fill:#6700cc;fill-opacity:1;fill-rule:nonzero;stroke:none"
         d="m 346.3145,560.7744 -52.0821,-170.0937 -20.0493,37.4638 -19.5093,-149.7168 28.9029,97.6446 17.4502,-33.0996 45.2876,217.8017 z" />
    </g>
  </g>
</svg>
